<svg xmlns="http://www.w3.org/2000/svg" xmlns:xlink="http://www.w3.org/1999/xlink" version="1.1" x="0px" y="0px" viewBox="-6.95 -13.9 152.9 187.65" enable-background="new 0 0 139 139" xml:space="preserve"><path d="M69.499,8.619c-33.543,0-60.833,27.29-60.833,60.834c0,33.545,27.29,60.835,60.833,60.835  c33.545,0,60.836-27.29,60.836-60.835C130.335,35.909,103.044,8.619,69.499,8.619z M69.499,124.288  c-30.235,0-54.833-24.599-54.833-54.835c0-30.235,24.598-54.834,54.833-54.834c30.236,0,54.836,24.599,54.836,54.834  C124.335,99.689,99.735,124.288,69.499,124.288z"/><path d="M85.64,95.68v-4v-6.327v-3.229h-3.924l-9.732-15.175l-3.84,5.988l5.892,9.187h-3.563l-4.11-6.408l0,0l-8.276-12.904  L45.7,82.124h-3.064V46.256h53.667V72.32h2.37h4.162v-29.72c0-1.534-1.243-2.777-2.778-2.777H38.945  c-1.535,0-2.778,1.243-2.778,2.777v53.705c0,1.534,1.243,2.777,2.778,2.777h55.728V95.68H89.64H85.64z"/><polygon points="104.999,85.353 104.999,76.32 102.835,76.32 98.673,76.32 98.673,85.353 89.64,85.353 89.64,91.68 98.673,91.68   98.673,99.083 98.673,100.712 104.999,100.712 104.999,91.68 114.031,91.68 114.031,85.353 "/><circle cx="85.832" cy="58.289" r="5.748"/></svg>